<?xml version="1.0" encoding="UTF-8"?>
<svg width="380px" height="220px" viewBox="0 0 380 220" version="1.1" xmlns="http://www.w3.org/2000/svg" xmlns:xlink="http://www.w3.org/1999/xlink">
    <title>viva_agencias</title>
    <g id="Tarifa-extra" stroke="none" stroke-width="1" fill="none" fill-rule="evenodd">
        <g id="LP_-VivaPlay-V1-Copy" transform="translate(-122.000000, -232.000000)">
            <g id="viva_agencias" transform="translate(122.000000, 232.000000)">
                <rect id="Rectangle" x="0" y="0" width="380" height="220"></rect>
                <g id="undraw_travel_plans_li01" transform="translate(60.000000, 10.000000)" fill-rule="nonzero">
                    <ellipse id="Oval" fill="#3F3D56" cx="221.524229" cy="193.486208" rx="39.4757709" ry="6.51379156"></ellipse>
                    <path d="M254.913375,169.504134 C254.835632,183.498441 246.48701,188.338019 236.222791,188.2817 C235.984371,188.279886 235.747115,188.275912 235.511024,188.269282 C235.035381,188.256387 234.564758,188.232113 234.099155,188.196458 C224.838983,187.489431 217.669472,182.313058 217.741546,169.298385 C217.816133,155.829811 235.128336,138.928024 236.426588,137.678415 C236.427715,137.678415 236.427715,137.678415 236.428865,137.677286 C236.478177,137.629662 236.503427,137.605854 236.503427,137.605854 C236.503427,137.605854 254.990625,155.510962 254.913375,169.504134 Z" id="Path" fill="#38AC49"></path>
                    <path d="M235.558185,186.136851 L242.408317,176.679188 L235.535287,187.179116 L235.511013,188.269274 C235.035371,188.25638 234.564748,188.232105 234.099145,188.19645 L234.909024,174.200483 L234.90393,174.092117 L234.916575,174.071651 L234.993498,172.749132 L228.220219,162.14745 L235.019521,171.758213 L235.035081,172.038857 L235.646907,161.464361 L229.85888,150.515719 L235.729068,159.605851 L236.426601,137.678415 L236.429273,137.605446 L236.428877,137.677286 L236.237296,154.971498 L242.096344,148.147397 L236.203929,156.460783 L235.99748,165.931263 L241.485632,156.872081 L235.968102,167.323621 L235.853379,172.589689 L243.814965,159.981352 L235.812414,174.42675 L235.558185,186.136851 Z" id="Path" fill="#3F3D56"></path>
                    <ellipse id="Oval" fill="#2F2E41" cx="217.807617" cy="50.6595527" rx="12.4418994" ry="12.4387926"></ellipse>
                    <ellipse id="Oval" fill="#FFB8B8" cx="215.955759" cy="55.0050129" rx="8.44901586" ry="8.44690608"></ellipse>
                    <path d="M210.932021,59.5709074 C210.932021,59.5709074 214.585648,68.0178135 212.758835,68.9309934 C210.932021,69.8441734 210.018613,73.9534767 210.018613,73.9534767 L214.814,83.9984483 L221.436202,88.1077567 L225.318183,88.1077567 C225.318183,88.1077567 229.200164,70.7573533 227.830053,68.7027017 C226.459942,66.64805 221.436202,65.5065732 221.436202,65.5065732 C221.436202,65.5065732 220.294443,62.7670359 220.751148,60.2557956 C221.207853,57.7445552 210.932021,59.5709074 210.932021,59.5709074 Z" id="Path" fill="#FFB8B8"></path>
                    <path d="M205.451586,83.541857 L199.514433,78.7476733 C199.514433,78.7476733 188.781898,71.2139471 190.152009,76.693019 C191.522119,82.172091 197.687616,82.6286848 197.687616,82.6286848 L207.963448,90.8473016 L205.451586,83.541857 Z" id="Path" fill="#FFB8B8"></path>
                    <path d="M204.994873,108.654281 C204.994873,108.654281 202.254651,120.069019 204.994873,135.593065 L206.136632,141.757022 C206.136632,141.757022 206.136632,146.551211 207.278392,148.377571 C207.278392,148.377571 210.246965,175.544647 211.845427,175.544647 C213.443889,175.544647 218.467629,174.631467 218.924332,173.946584 C219.381035,173.261701 210.018613,107.512807 210.018613,107.512807 L204.994873,108.654281 Z" id="Path" fill="#2F2E41"></path>
                    <path d="M204.994873,108.654281 C204.994873,108.654281 202.254651,120.069019 204.994873,135.593065 L206.136632,141.757022 C206.136632,141.757022 206.136632,146.551211 207.278392,148.377571 C207.278392,148.377571 210.246965,175.544647 211.845427,175.544647 C213.443889,175.544647 218.467629,174.631467 218.924332,173.946584 C219.381035,173.261701 210.018613,107.512807 210.018613,107.512807 L204.994873,108.654281 Z" id="Path" fill="#000000" opacity="0.1"></path>
                    <path d="M212.494155,173.72137 L208.95681,186.827078 C208.95681,186.827078 201.88212,190.98762 206.251781,191.819728 C210.621443,192.651835 214.991104,190.98762 214.991104,190.98762 L217.071894,184.954827 L219.152686,183.706665 L219.152686,190.155508 L219.776922,190.155508 L221.233475,181.626395 C221.233475,181.626395 221.025396,177.257825 219.776922,176.841772 C218.528447,176.42572 217.904211,174.137425 217.904211,174.137425 L212.494155,173.72137 Z" id="Path" fill="#2F2E41"></path>
                    <path d="M212.494155,173.72137 L208.95681,186.827078 C208.95681,186.827078 201.88212,190.98762 206.251781,191.819728 C210.621443,192.651835 214.991104,190.98762 214.991104,190.98762 L217.071894,184.954827 L219.152686,183.706665 L219.152686,190.155508 L219.776922,190.155508 L221.233475,181.626395 C221.233475,181.626395 221.025396,177.257825 219.776922,176.841772 C218.528447,176.42572 217.904211,174.137425 217.904211,174.137425 L212.494155,173.72137 Z" id="Path" fill="#000000" opacity="0.1"></path>
                    <path d="M204.081467,108.197692 C204.081467,108.197692 205.908281,115.046535 206.593338,116.18801 C206.593338,116.18801 207.506743,135.593065 210.475316,142.213611 L213.672243,150.660517 C213.672243,150.660517 218.924332,175.544659 217.554221,178.284184 C217.554221,178.284184 224.633126,179.882234 225.089831,178.284184 C225.089831,178.284184 224.86148,165.043089 225.546534,163.216729 C226.231588,161.390369 227.373348,151.345403 221.892905,144.039971 L221.892905,121.895378 C221.892905,121.895378 230.570274,114.589947 225.546534,105.229861 C220.522794,95.8697746 204.081467,108.197692 204.081467,108.197692 Z" id="Path" fill="#2F2E41"></path>
                    <path d="M218.239278,176.914415 L214.357297,191.296984 C214.357297,191.296984 206.593338,195.862882 211.388724,196.776059 C216.18411,197.689236 220.979499,195.862882 220.979499,195.862882 L223.263015,189.242333 L225.546534,187.872564 L225.546534,194.949702 L226.231591,194.949702 L227.830053,185.589616 C227.830053,185.589616 227.601702,180.795427 226.231591,180.338838 C224.86148,179.882249 224.176423,177.371004 224.176423,177.371004 L218.239278,176.914415 Z" id="Path" fill="#2F2E41"></path>
                    <path d="M213.255578,67.2260277 C213.255578,67.2260277 207.506743,70.5290564 207.506743,70.7573508 C207.506743,70.9856451 208.1918,74.6383623 208.1918,74.6383623 C208.1918,74.6383623 201.112895,81.7154997 205.908281,87.8794573 C205.908281,87.8794573 207.50673,89.0209315 207.50673,92.6736487 L207.50673,96.3263633 C207.50673,96.3263633 194.033977,104.773272 197.459252,107.512807 C200.884528,110.252341 204.538157,109.795755 205.679922,111.393818 C206.821686,112.991881 213.443881,110.02405 214.813992,109.567461 C216.184103,109.110872 216.412457,108.654281 217.554213,110.252344 C218.69597,111.850407 225.089824,109.110882 225.089824,109.110882 C225.089824,109.110882 229.200159,107.969408 230.113561,107.969408 C230.677602,107.962615 231.229535,107.804958 231.712026,107.512817 L221.892907,97.4678478 L226.802467,85.0257831 C226.802467,85.0257831 212.302129,76.0081411 212.302129,73.4968982 C212.302129,70.9856553 213.255578,67.2260277 213.255578,67.2260277 Z" id="Path" fill="#3F3D56"></path>
                    <path d="M222.121259,67.7895192 C222.121259,67.7895192 219.152686,71.8988276 221.436202,77.6061862 C223.719718,83.3135448 227.373348,89.9341115 227.373348,89.9341115 L221.664564,91.7604688 L216.412464,91.7604688 C216.412464,91.7604688 205.451578,89.9341115 206.593345,94.0434173 C207.735112,98.1527232 215.499064,96.3263633 215.499064,96.3263633 L220.066099,96.3263633 C220.066099,96.3263633 230.341931,97.4678376 231.712041,95.6414803 C231.712041,95.6414803 235.365668,95.413186 233.767206,88.1077542 C232.168744,80.8023224 227.501701,68.2970636 227.501701,68.2970636 L222.121259,67.7895192 Z" id="Path" fill="#FFB8B8"></path>
                    <ellipse id="Oval" fill="#2F2E41" cx="214.312701" cy="47.1655115" rx="7.96840793" ry="4.05309057"></ellipse>
                    <ellipse id="Oval" fill="#FFB8B8" cx="224.290599" cy="54.434277" rx="1.14175938" ry="2.5112429"></ellipse>
                    <ellipse id="Oval" fill="#2F2E41" cx="223.377194" cy="39.5951165" rx="6.85055374" ry="6.84884311"></ellipse>
                    <ellipse id="Oval" fill="#38AC49" opacity="0.3" cx="77.4185022" cy="42.6472315" rx="28.1057269" ry="28.0987087"></ellipse>
                    <ellipse id="Oval" fill="#38AC49" opacity="0.3" cx="22.9955947" cy="120.81273" rx="16.6079295" ry="16.6037824"></ellipse>
                    <ellipse id="Oval" fill="#38AC49" opacity="0.3" cx="129.54185" cy="120.81273" rx="33.9823789" ry="33.9738932"></ellipse>
                    <path d="M16.8966213,65.9136059 L16.3968376,65.8070863 C16.5038796,65.3051786 16.6154559,64.8049365 16.7315666,64.3063598 L17.2293548,64.4222312 C17.1139527,64.9177766 17.0030415,65.4149016 16.8966213,65.9136059 Z" id="Path" fill="#38AC49"></path>
                    <path d="M177.803655,61.6928121 C177.541661,60.719437 177.257211,59.7364548 176.958787,58.7713127 L177.446843,58.620392 C177.747265,59.5915242 178.033461,60.5806166 178.297202,61.5601044 L177.803655,61.6928121 Z M17.9747902,61.4695551 L17.4817417,61.335348 C17.7492264,60.3529916 18.0391651,59.3611531 18.3435782,58.3874026 L18.8313863,58.5398202 C18.5287209,59.5075806 18.2406525,60.4931786 17.9747902,61.4695551 L17.9747902,61.4695551 Z M176.007873,55.8879739 C175.673269,54.934056 175.317706,53.9760203 174.950416,53.0406858 L175.425995,52.8540925 C175.795532,53.7951642 176.153591,54.7591849 176.489943,55.719093 L176.007873,55.8879739 Z M19.7960234,55.6447566 L19.3142044,55.4743763 C19.6545392,54.5132242 20.0172206,53.5462071 20.3922481,52.6000214 L20.8673294,52.7881116 C20.4945504,53.7285601 20.13412,54.6897147 19.7960234,55.6447566 L19.7960234,55.6447566 Z M173.787909,50.2336835 C173.385685,49.3103217 172.960009,48.3807244 172.522852,47.4707094 L172.983462,47.2494423 C173.423362,48.1652048 173.851786,49.100529 174.256506,50.0296282 L173.787909,50.2336835 Z M22.0435567,49.9738752 L21.5757087,49.7680752 C21.9859169,48.8358571 22.4189546,47.8987754 22.8630992,46.9829005 L23.32296,47.2056645 C22.8815647,48.1159273 22.4511459,49.0472718 22.0435592,49.9738752 L22.0435567,49.9738752 Z M171.155741,44.7553882 C170.684651,43.8612132 170.191355,42.9650432 169.689573,42.0918222 L170.132718,41.8373781 C170.637492,42.7159609 171.134033,43.6176204 171.60787,44.5174074 L171.155741,44.7553882 Z M24.7039119,44.487467 L24.2525314,44.2477416 C24.730735,43.348072 25.2317656,42.4457969 25.7417823,41.5662154 L26.1839288,41.8224066 C25.677042,42.6966239 25.1790034,43.593292 24.7039119,44.487467 Z M168.126082,39.4833833 C167.591864,38.6276243 167.033692,37.7697452 166.467785,36.9334459 L166.890968,36.647069 C167.460618,37.48861 168.022035,38.3518508 168.559746,39.2127365 L168.126082,39.4833833 Z M27.760632,39.2140955 L27.3282177,38.941939 C27.8702954,38.0814416 28.436079,37.2188215 29.0099622,36.3781567 L29.4321485,36.6660279 C28.8617709,37.5017065 28.2993523,38.3589598 27.7606422,39.2140955 L27.760632,39.2140955 Z M164.715917,34.4457446 C164.122812,33.6345145 163.50326,32.8194169 162.874481,32.0232783 L163.275705,31.7067182 C163.908235,32.5078456 164.53152,33.327932 165.128639,34.1441535 L164.715917,34.4457446 Z M31.1960001,34.1815733 L30.7847929,33.8782324 C31.3895004,33.0586442 32.0169147,32.2401799 32.6496922,31.4455382 L33.0494195,31.7635951 C32.4206458,32.5534984 31.7970998,33.3669815 31.1960103,34.1815733 L31.1960001,34.1815733 Z M160.944711,29.6694163 C160.290474,28.9002167 159.612783,28.1323939 158.930351,27.3872672 L159.307123,27.0422713 C159.993797,27.7918861 160.675729,28.564455 161.333957,29.3383879 L160.944711,29.6694163 Z M34.9900586,29.4154678 L34.6020565,29.0829451 C35.2635299,28.3117633 35.948957,27.5415573 36.6393742,26.7938123 L37.0148974,27.1403077 C36.3287241,27.8835594 35.6474132,28.6490168 34.9900586,29.4154678 L34.9900586,29.4154678 Z M156.83315,25.1799579 C156.122772,24.4591545 155.390437,23.7427166 154.656354,23.0504768 L155.007177,22.6787896 C155.745499,23.3753822 156.482326,24.0961958 157.196948,24.8214899 L156.83315,25.1799579 Z M39.1213296,24.9411035 L38.7587811,24.5811386 C39.4763944,23.8587157 40.2160911,23.1409061 40.9572851,22.4476675 L41.3063608,22.820729 C40.5696586,23.5097272 39.8345789,24.2231687 39.1213296,24.9411035 L39.1213296,24.9411035 Z M152.402456,21.0016978 C151.642173,20.3352756 150.859196,19.6739674 150.07545,19.036234 L150.397827,18.6400984 C151.186553,19.2816992 151.974283,19.9469974 152.739305,20.6175348 L152.402456,21.0016978 Z M43.5672442,20.7816772 L43.2318918,20.3961425 C43.9997837,19.7287241 44.7896338,19.0670429 45.5798596,18.4294321 L45.9007401,18.8270646 C45.1155044,19.4606752 44.3303965,20.118374 43.5672442,20.7816772 L43.5672442,20.7816772 Z M147.677081,17.1570919 C146.871637,16.5491687 146.041989,15.9468576 145.211593,15.3668721 L145.504028,14.9480379 C146.339912,15.5316378 147.17455,16.1376912 147.984997,16.7492341 L147.677081,17.1570919 Z M48.3038487,16.9593792 L47.9976905,16.5502722 C48.812616,15.9406018 49.648626,15.3386636 50.4823926,14.7611738 L50.7733303,15.1812572 C49.9446789,15.7550175 49.1137842,16.3533361 48.3038487,16.9593792 Z M142.681477,13.6680574 C141.831618,13.1198772 140.959551,12.5798072 140.089981,12.0631843 L140.350978,11.6238917 C141.226037,12.1438838 142.103345,12.6871979 142.958443,13.2387449 L142.681477,13.6680574 Z M53.3058147,13.4951967 L53.0303454,13.0648982 C53.8865685,12.5172288 54.7641238,11.9783927 55.6385568,11.4632718 L55.898057,11.9035607 C55.0288619,12.4154246 54.1566696,12.9510065 53.3058147,13.4951967 L53.3058147,13.4951967 Z M137.440349,10.5546107 C136.554308,10.0711647 135.644567,9.59670013 134.736818,9.14443609 L134.964878,8.68719346 C135.878115,9.14232613 136.793598,9.61965933 137.685124,10.1060991 L137.440349,10.5546107 Z M58.5464443,10.4084284 L58.3034141,9.95891036 C59.1966882,9.47621287 60.1111744,9.00349296 61.0211663,8.55409754 L61.2474788,9.01210649 C60.3429752,9.4587508 59.4342301,9.92859952 58.5464443,10.4084284 Z M131.982138,7.83466842 C131.062166,7.41782664 130.119735,7.01196122 129.180796,6.62804857 L129.374174,6.15508089 C130.318974,6.54136405 131.267519,6.94997292 132.19323,7.369433 L131.982138,7.83466842 Z M63.9976676,7.71679945 L63.7884485,7.25081557 C64.7131627,6.83597646 65.6594596,6.4321035 66.6010167,6.05068397 L66.7929022,6.52415232 C65.8570837,6.90332395 64.9166431,7.30457351 63.9976676,7.71679945 L63.9976676,7.71679945 Z M126.335541,5.52570557 C125.383381,5.17709 124.412754,4.84194649 123.450488,4.52950162 L123.608432,4.04356255 C124.576562,4.35801265 125.553177,4.69526612 126.511202,5.04600186 L126.335541,5.52570557 Z M69.6295442,5.43565177 L69.4553781,4.95544739 C70.4095369,4.60932239 71.3825316,4.27680482 72.3471713,3.96685563 L72.5034928,4.45329281 C71.5448448,4.761247 70.5779618,5.09177466 69.6295442,5.43565177 L69.6295442,5.43565177 Z M120.529754,3.64094126 C119.556757,3.36455215 118.56617,3.10297871 117.585551,2.86326097 L117.706817,2.36709397 C118.693535,2.60819366 119.690361,2.87149389 120.66947,3.14951529 L120.529754,3.64094126 Z M75.4196127,3.57570883 L75.2813836,3.08377963 C76.2592457,2.80925525 77.2567052,2.54894626 78.2461596,2.31009446 L78.3660536,2.80675957 C77.3826955,3.04411703 76.3913656,3.30280396 75.4196127,3.57570883 Z M114.614551,2.19521928 C113.624974,1.99191235 112.617782,1.80432282 111.620957,1.63755953 L111.705294,1.13366028 C112.708232,1.30141979 113.72165,1.49025844 114.717352,1.69480938 L114.614551,2.19521928 Z M81.3388065,2.14719858 L81.2375033,1.64652813 C82.2350752,1.44459293 83.2489944,1.25874807 84.2511833,1.09410752 L84.3340236,1.59825966 C83.3380793,1.76178903 82.3302667,1.9465125 81.3388065,2.14719858 L81.3388065,2.14719858 Z M108.608771,1.19040946 C107.60471,1.06031754 106.586436,0.947437368 105.582239,0.854514938 L105.629273,0.345874668 C106.639697,0.439297766 107.66422,0.552923835 108.674401,0.683764194 L108.608771,1.19040946 Z M87.3475759,1.16010117 L87.2833262,0.653205572 C88.2902547,0.525609336 89.315153,0.414849335 90.3293175,0.323924468 L90.3749791,0.832812517 C89.3669289,0.923119213 88.3483952,1.03325338 87.3475784,1.16010117 L87.3475759,1.16010117 Z M102.545229,0.629505588 C101.538173,0.573254528 100.514401,0.534838484 99.5022296,0.515256239 L99.5122097,0.00437062641 C100.53037,0.0242032059 101.560507,0.062867029 102.573675,0.119368423 L102.545229,0.629505588 Z M93.412618,0.616403926 L93.3856697,0.106264207 C94.400335,0.0525088232 95.430719,0.0168362353 96.4480058,0 L96.4564886,0.510885612 C95.4453161,0.527481731 94.4212942,0.563029152 93.412618,0.616403926 Z" id="Shape" fill="#38AC49"></path>
                    <path d="M178.881323,66.1967464 C178.776527,65.6975856 178.667404,65.2001286 178.553956,64.7043755 L179.051994,64.5901261 C179.166522,65.0890366 179.27631,65.5896525 179.381358,66.091974 L178.881323,66.1967464 Z" id="Path" fill="#38AC49"></path>
                    <path d="M179.570494,99.5067055 L179.068962,99.4076703 C179.167521,98.9087598 179.261673,98.4082265 179.351417,97.9060702 L179.854446,97.9956259 C179.76437,98.5010246 179.669719,99.0047178 179.570494,99.5067055 Z" id="Path" fill="#38AC49"></path>
                    <path d="M97.859156,166.536992 C97.3037273,166.536992 96.7496305,166.531587 96.1968658,166.520777 L96.2068459,166.009891 C97.2170194,166.029599 98.234181,166.030838 99.2454787,166.014632 L99.2537137,166.525518 C98.7897341,166.533002 98.3248816,166.536827 97.859156,166.536992 Z M102.308934,166.420498 L102.281986,165.910123 C103.292657,165.856991 104.31219,165.784647 105.312258,165.695342 L105.357669,166.204232 C104.351495,166.294023 103.325725,166.366855 102.308934,166.420498 Z M93.1426344,166.405779 C92.1283421,166.349153 91.1028229,166.273317 90.0946449,166.180272 L90.1415534,165.671381 C91.1437423,165.763928 92.1630246,165.839513 93.1710774,165.895892 L93.1426344,166.405779 Z M108.396678,165.877181 L108.332546,165.370288 C109.338353,165.243065 110.349901,165.096384 111.33899,164.934247 L111.42158,165.438647 C110.426379,165.601533 109.408729,165.748962 108.396683,165.877171 L108.396678,165.877181 Z M87.0565104,165.843256 C86.0468352,165.712293 85.0295509,165.56162 84.0328452,165.394984 L84.1171828,164.891082 C85.107644,165.056471 86.1186913,165.206396 87.1221296,165.336363 L87.0565104,165.843256 Z M114.42853,164.889586 L114.327474,164.388678 C115.31906,164.188615 116.317007,163.967846 117.293622,163.732859 L117.413141,164.229774 C116.430544,164.46601 115.426357,164.688026 114.428535,164.889586 L114.42853,164.889586 Z M81.0277783,164.835943 C80.0309525,164.631389 79.0273915,164.406129 78.045288,164.166404 L78.1665515,163.669987 C79.1425433,163.908218 80.1398673,164.132228 81.1305789,164.335535 L81.0277783,164.835943 Z M120.371555,163.459954 L120.233819,162.968017 C121.203073,162.696609 122.182056,162.403001 123.143451,162.094914 L123.2994,162.581353 C122.332024,162.891446 121.346925,163.187049 120.37156,163.459954 L120.371555,163.459954 Z M75.0893704,163.387352 C74.11263,163.110452 73.125912,162.810861 72.1566656,162.496794 L72.3141113,162.010855 C73.2775015,162.322924 74.2581078,162.620776 75.2288591,162.895923 L75.0893704,163.387352 Z M126.185071,161.598266 L126.011158,161.117804 C126.955459,160.776297 127.90787,160.412092 128.841816,160.034915 L129.03319,160.508632 C128.093396,160.888064 127.135124,161.254765 126.185081,161.598266 L126.185071,161.598266 Z M69.2598722,161.498723 C68.3047169,161.149734 67.3434474,160.778045 66.4026389,160.393882 L66.5957661,159.920914 C67.5307107,160.302581 68.4861164,160.672026 69.4352826,161.018769 L69.2598722,161.498723 Z M131.839652,159.314996 L131.631056,158.848504 C132.55078,158.437151 133.474248,158.003596 134.376005,157.559565 L134.601568,158.018064 C133.694344,158.464601 132.765125,158.9009 131.839662,159.314996 L131.839652,159.314996 Z M63.5890716,159.184769 C62.6631157,158.766182 61.7324073,158.324894 60.8227885,157.872881 L61.0503503,157.415383 C61.9542279,157.864653 62.8793177,158.303445 63.7996653,158.719288 L63.5890716,159.184769 Z M137.314831,156.619875 L137.072299,156.170347 C137.960583,155.691902 138.850114,155.19149 139.716192,154.682842 L139.975192,155.123381 C139.103388,155.635023 138.208379,156.138669 137.314842,156.619875 L137.314831,156.619875 Z M58.1072719,156.459718 C57.214496,155.974274 56.3192367,155.465634 55.4461706,154.948262 L55.7067873,154.508722 C56.5744878,155.0231 57.4642691,155.528498 58.3515567,156.010945 L58.1072719,156.459718 Z M142.579652,153.529367 L142.304934,153.098798 C143.151049,152.559474 144.001656,151.994955 144.83355,151.420707 L145.12399,151.841291 C144.286881,152.418789 143.430781,152.986799 142.579673,153.529367 L142.579652,153.529367 Z M52.8431766,153.34027 C51.9898254,152.791219 51.1346039,152.218718 50.3012103,151.638235 L50.5932722,151.219147 C51.4216732,151.795889 52.2716568,152.364898 53.1196424,152.910708 L52.8431766,153.34027 Z M147.605439,150.060681 L147.300027,149.651068 C148.106222,149.050129 148.913912,148.424744 149.700392,147.792372 L150.020774,148.190505 C149.229332,148.826874 148.416652,149.456002 147.60547,150.060681 L147.605439,150.060681 Z M47.8238693,149.844645 C47.0145573,149.235974 46.2037479,148.602606 45.4141482,147.962001 L45.7360252,147.565368 C46.5208853,148.20198 47.3267046,148.831355 48.1310266,149.436535 L47.8238693,149.844645 Z M152.366245,146.232781 L152.031889,145.846616 C152.793419,145.187062 153.553452,144.504294 154.291028,143.817043 L154.639355,144.190728 C153.897568,144.882227 153.132796,145.56923 152.366276,146.232781 L152.366245,146.232781 Z M43.0750389,145.9923 C42.3100163,145.324008 41.5478759,144.633262 40.809914,143.939526 L41.1599887,143.567345 C41.893446,144.256842 42.6508698,144.943344 43.4113903,145.607646 L43.0750389,145.9923 Z M156.837391,142.066869 L156.475594,141.706156 C157.189714,140.990219 157.898096,140.253575 158.581277,139.516932 L158.956052,139.864173 C158.268627,140.605558 157.555756,141.346689 156.837391,142.066869 Z M38.6215459,141.805689 C37.9095461,141.085759 37.20004,140.341632 36.5126174,139.594012 L36.8888917,139.248267 C37.572073,139.991396 38.2772099,140.730783 38.9849683,141.446473 L38.6215459,141.805689 Z M160.99337,137.584895 L160.606116,137.251622 C161.265344,136.486292 161.918582,135.699758 162.547369,134.913472 L162.946598,135.232775 C162.313818,136.023552 161.656586,136.815075 160.993367,137.584895 L160.99337,137.584895 Z M34.4862839,137.307002 C33.8284285,136.536433 33.1753152,135.742913 32.5450315,134.948146 L32.9455075,134.63084 C33.5719228,135.420615 34.221045,136.209395 34.8750321,136.975225 L34.4862839,137.307002 Z M164.813242,132.810061 L164.402536,132.505724 C165.005621,131.692249 165.599725,130.859814 166.168127,130.03162 L166.589312,130.32049 C166.017664,131.153923 165.420068,131.991347 164.813239,132.810061 L164.813242,132.810061 Z M30.6916122,132.520192 C30.0911461,131.703475 29.4979159,130.864555 28.9282665,130.027132 L29.3509511,129.739759 C29.9169826,130.572193 30.5065922,131.405874 31.1033151,132.217853 L30.6916122,132.520192 Z M168.273811,127.766811 L167.842143,127.493408 C168.381353,126.643013 168.912825,125.768913 169.422093,124.895825 L169.863739,125.153263 C169.351226,126.031846 168.816259,126.911177 168.273808,127.766811 L168.273811,127.766811 Z M27.2578665,127.471455 C26.7194068,126.613826 26.1893047,125.734244 25.6825329,124.857159 L26.1249298,124.601716 C26.628707,125.473315 27.1555642,126.347412 27.6907816,127.200047 L27.2578665,127.471455 Z M171.356605,122.48209 L170.905976,122.241115 C171.383801,121.347814 171.849651,120.4368 172.291049,119.533271 L172.750164,119.757281 C172.30627,120.66655 171.837425,121.583299 171.356605,122.48209 Z M24.2043965,122.186982 C23.7301762,121.291936 23.2663321,120.376183 22.825808,119.46542 L23.2859192,119.242904 C23.7236991,120.14818 24.1846841,121.058195 24.6560248,121.948005 L24.2043965,122.186982 Z M174.04267,116.982845 L173.575573,116.775796 C173.984284,115.854056 174.382016,114.910366 174.757546,113.971412 L175.232132,114.160999 C174.8541,115.105928 174.454122,116.055351 174.04267,116.982845 L174.04267,116.982845 Z M21.5485177,116.694961 C21.1411789,115.767237 20.7461912,114.820302 20.3744086,113.88085 L20.8496152,113.69276 C21.2190292,114.626723 21.6116457,115.567672 22.0163631,116.489659 L21.5485177,116.694961 Z M176.31628,111.296737 L175.835209,111.124612 C176.1758,110.171941 176.502669,109.201059 176.807082,108.239156 L177.294142,108.393321 C176.988229,109.360961 176.659116,110.337828 176.316277,111.296737 L176.31628,111.296737 Z M19.3054737,111.025827 C18.9673772,110.069664 18.6425031,109.094041 18.340088,108.125905 L18.8278961,107.973735 C19.1284409,108.935638 19.4511917,109.905274 19.7872928,110.8557 L19.3054737,111.025827 Z M178.16346,105.454985 L177.670912,105.318783 C177.938394,104.350399 178.191905,103.360558 178.424457,102.3767 L178.921995,102.494444 C178.687698,103.484279 178.43269,104.480356 178.16346,105.454985 Z M17.4826155,105.192806 C17.2166331,104.215689 16.965115,103.220111 16.7350594,102.233264 L17.2328476,102.117515 C17.4614059,103.098127 17.711299,104.087717 17.9756641,105.058599 L17.4826155,105.192806 Z" id="Shape" fill="#38AC49"></path>
                    <path d="M16.085812,99.1901454 C15.9884997,98.6877405 15.8956793,98.1837152 15.8073507,97.6780696 L16.3108775,97.5902611 C16.3984601,98.0926643 16.490698,98.5935298 16.5875912,99.0928575 L16.085812,99.1901454 Z" id="Path" fill="#38AC49"></path>
                    <path d="M139.574228,99.7403207 L139.099144,99.5524808 C139.284537,99.0837433 139.46469,98.6039246 139.634859,98.1259656 L140.116431,98.2973421 C139.944263,98.7807881 139.761859,99.266229 139.574228,99.7403207 Z" id="Path" fill="#38AC49"></path>
                    <path d="M97.8590308,128.092851 C97.2469622,128.092851 96.6292775,128.080377 96.0230753,128.055931 L96.0437867,127.545543 C97.0494607,127.586205 98.0773638,127.593191 99.0862853,127.565251 L99.1002589,128.076136 C98.6878048,128.087364 98.2740621,128.092935 97.8590308,128.092851 Z M102.171453,127.888046 L102.123048,127.379656 C103.129353,127.283865 104.144269,127.151653 105.139847,126.987263 L105.223186,127.491162 C104.21613,127.6578 103.189364,127.791259 102.171453,127.888046 Z M92.9543771,127.827688 C91.9379718,127.717181 90.9131936,127.570002 89.9085084,127.390142 L89.9985847,126.887239 C90.9917925,127.064854 92.0048353,127.210535 93.0097709,127.319796 L92.9543771,127.827688 Z M108.240359,126.885244 L108.122338,126.388329 C109.106186,126.154839 110.09328,125.884677 111.056172,125.584831 L111.208129,126.072768 C110.23401,126.375845 109.235562,126.649248 108.240359,126.885244 L108.240359,126.885244 Z M86.899568,126.744053 C85.907234,126.494846 84.9120332,126.207971 83.9415322,125.891661 L84.0999744,125.405722 C85.0593737,125.71854 86.0431022,126.002181 87.0240789,126.248632 L86.899568,126.744053 Z M114.113142,125.056734 L113.927752,124.580772 C114.868185,124.21482 115.808743,123.810952 116.723104,123.38064 L116.940934,123.842632 C116.015841,124.278172 115.064432,124.686781 114.113142,125.056734 L114.113142,125.056734 Z M81.0497391,124.836452 C80.1016946,124.453033 79.1556482,124.031708 78.2377944,123.584185 L78.4618737,123.125187 C79.3691214,123.567471 80.3043139,123.983812 81.2413793,124.362987 L81.0497391,124.836452 Z M119.678273,122.436938 L119.429254,121.990912 C120.312047,121.497986 121.18823,120.968885 122.033599,120.418091 L122.312559,120.846157 C121.457585,121.403191 120.571297,121.938525 119.678273,122.436938 Z M75.5187952,122.141832 C74.6331301,121.631943 73.7539523,121.084887 72.9057292,120.515877 L73.19043,120.091804 C74.0290614,120.654325 74.8981314,121.195146 75.7738164,121.699306 L75.5187952,122.141832 Z M124.832194,119.078772 L124.524288,118.671161 C125.33198,118.061741 126.127817,117.417895 126.889722,116.757335 L127.224574,117.143493 C126.453938,117.81152 125.648992,118.462608 124.832194,119.078772 Z M70.4100352,118.714817 C69.6009735,118.087934 68.804636,117.425878 68.0433567,116.747358 L68.3834487,116.366189 C69.1359949,117.036726 69.9232261,117.69105 70.7231815,118.311197 L70.4100352,118.714817 Z M129.47922,115.049562 L129.118918,114.687344 C129.835532,113.974659 130.536305,113.228526 131.201895,112.469682 L131.586153,112.806448 C130.912952,113.57402 130.204072,114.328624 129.47922,115.049562 L129.47922,115.049562 Z M65.8165322,114.623995 C65.1019109,113.894338 64.4031361,113.130502 63.7396672,112.353448 L64.1284154,112.021671 C64.7842753,112.789994 65.4751907,113.545349 66.1815771,114.266773 L65.8165322,114.623995 Z M133.53514,110.425136 L133.128923,110.115312 C133.741242,109.312812 134.333846,108.478383 134.890521,107.634722 L135.317199,107.91611 C134.754034,108.769501 134.154692,109.613658 133.53514,110.425136 Z M61.8226114,109.946436 C61.2132869,109.125476 60.625172,108.273334 60.0746115,107.413961 L60.5050302,107.13856 C61.0492286,107.987958 61.6306058,108.830358 62.2330674,109.642099 L61.8226114,109.946436 Z M136.92234,105.29109 L136.4777,105.039638 C136.974489,104.160804 137.447327,103.253035 137.882986,102.341523 L138.344096,102.561794 C137.903455,103.483779 137.425128,104.402027 136.922348,105.29109 L136.92234,105.29109 Z M58.5046511,104.768227 C58.013225,103.871186 57.5473752,102.9467 57.1200736,102.02072 L57.5841783,101.806687 C58.0064873,102.722194 58.4670993,103.635949 58.9527841,104.522764 L58.5046511,104.768227 Z" id="Shape" fill="#38AC49"></path>
                    <path d="M55.9213899,99.1669461 C55.7406138,98.6906091 55.5649581,98.202675 55.3992723,97.7164856 L55.8830869,97.5518451 C56.0467721,98.0324199 56.2204374,98.5148645 56.3992102,98.9855919 L55.9213899,99.1669461 Z" id="Path" fill="#38AC49"></path>
                    <path d="M56.7109896,66.7419252 L56.2369048,66.5513393 C56.4282792,66.0752527 56.6300196,65.5974214 56.836497,65.1313124 L57.3038441,65.3381112 C57.0997378,65.7989811 56.9002485,66.2712003 56.7109896,66.7419252 Z" id="Path" fill="#38AC49"></path>
                    <path d="M58.6466259,62.5705238 L58.1949975,62.3317946 C58.6776904,61.4191587 59.1990593,60.5113891 59.7446451,59.6339277 L60.1785567,59.903591 C59.6393304,60.7710722 59.1239557,61.6683662 58.6466259,62.5705238 Z M136.66809,61.8263959 C136.174293,60.9340933 135.64182,60.0469021 135.085894,59.1892733 L135.514568,58.9113796 C136.076981,59.7788634 136.615691,60.6764051 137.115227,61.5789357 L136.66809,61.8263959 Z M61.8917361,57.3492881 L61.4774092,57.0501902 C62.0821167,56.2127669 62.7238777,55.3859445 63.3848529,54.5924268 L63.7775921,54.9194625 C63.1241058,55.7038763 62.4895807,56.5213393 61.8917361,57.3492881 Z M133.324046,56.6680222 C132.711231,55.8524265 132.061235,55.0470588 131.392776,54.274495 L131.77903,53.9402225 C132.455474,54.7216451 133.112706,55.5361168 133.732756,56.3611919 L133.324046,56.6680222 Z M65.8265123,52.6254661 L65.4572261,52.2722372 C66.1713466,51.5262395 66.9207679,50.7954585 67.6846739,50.1002249 L68.0287596,50.47815 C67.2734667,51.165401 66.5325231,51.8878264 65.8265123,52.6254661 Z M129.300941,52.0199134 C128.580831,51.295733 127.826287,50.5874131 127.058147,49.9146304 L127.394997,49.5304674 C128.17187,50.2108572 128.935022,50.9272951 129.663367,51.6596981 L129.300941,52.0199134 Z M70.3737302,48.487617 L70.0565929,48.0869907 C70.867277,47.4457654 71.7101499,46.8251186 72.5617559,46.2422645 L72.8504478,46.6638448 C72.0084487,47.2400803 71.1751829,47.8536259 70.3737302,48.487617 Z M124.675873,47.9691141 C123.863441,47.3512107 123.018572,46.7535154 122.16472,46.1927367 L122.44518,45.7656696 C123.309012,46.3329314 124.16361,46.9374879 124.985273,47.5625002 L124.675873,47.9691141 Z M75.4473096,45.016065 L75.1885581,44.5755258 C76.0792132,44.0527902 76.9998112,43.5546282 77.9246506,43.0948796 L78.1522099,43.5523777 C77.237859,44.006767 76.3278595,44.499317 75.4473096,45.016065 Z M119.536546,44.5946099 C118.645017,44.093942 117.725543,43.618987 116.803824,43.1826881 L117.022399,42.7209471 C117.95485,43.1622322 118.88493,43.6428096 119.786812,44.1490819 L119.536546,44.5946099 Z M80.9525521,42.2802828 L80.7574293,41.808061 C81.7120863,41.4139127 82.6930656,41.0485937 83.6729258,40.7221736 L83.8343626,41.2068661 C82.8658571,41.529544 81.89623,41.8906329 80.9525521,42.2802828 L80.9525521,42.2802828 Z M113.979403,41.9647215 C113.027365,41.5929066 112.050877,41.2505289 111.077006,40.9468151 L111.229214,40.4591288 C112.214309,40.7663345 113.202152,41.1127048 114.165294,41.4887575 L113.979403,41.9647215 Z M86.7844163,40.3375202 L86.657174,39.8427274 C87.6569944,39.5856626 88.6793938,39.3605281 89.6958068,39.173687 L89.788129,39.6760893 C88.7834361,39.8608102 87.7728819,40.0833239 86.7844163,40.3375202 L86.7844163,40.3375202 Z M108.11061,40.1342132 C107.117154,39.8991011 106.102487,39.6960445 105.094684,39.5306555 L105.177524,39.0265034 C106.196929,39.1937648 107.223322,39.3991944 108.228383,39.6370474 L108.11061,40.1342132 Z M92.8308652,39.2253196 L92.7734759,38.7176781 C93.7966265,38.6021797 94.8401104,38.5207317 95.8752367,38.475457 L95.8975679,38.9858318 C94.8740442,39.0306211 93.8422881,39.1111954 92.8308652,39.2253196 L92.8308652,39.2253196 Z M102.044073,39.1382596 C101.029658,39.043217 99.9965276,38.9822249 98.9736273,38.9570306 L98.9861037,38.4464004 C100.020857,38.4718451 101.065713,38.5334604 102.091733,38.6296244 L102.044073,39.1382596 Z" id="Shape" fill="#38AC49"></path>
                    <path d="M138.690185,65.974971 C138.492316,65.5082412 138.283968,65.0397617 138.071131,64.5825088 L138.534237,64.3669789 C138.74957,64.8294709 138.960422,65.3034323 139.160775,65.7754063 L138.690185,65.974971 Z" id="Path" fill="#38AC49"></path>
                    <path d="M145.286461,83.2021854 C143.902369,83.196832 142.707531,84.1703894 142.433552,85.5267654 C142.159573,86.8831414 142.882883,88.2439587 144.160595,88.7759818 C145.438308,89.3080048 146.91399,88.8628194 147.684074,87.7130149 C148.454157,86.5632105 148.303818,85.0295386 147.32511,84.0510746 C146.786822,83.5063943 146.052344,83.2005668 145.286461,83.2021854 L145.286461,83.2021854 Z" id="Path" fill="#3F3D56"></path>
                    <path d="M133.726755,83.2021853 C132.342662,83.1968283 131.147821,84.1703836 130.873839,85.5267597 C130.599857,86.8831359 131.323165,88.2439552 132.600878,88.7759803 C133.87859,89.3080053 135.354274,88.8628211 136.124358,87.7130165 C136.894443,86.563212 136.744104,85.0295391 135.765396,84.0510746 C135.226142,83.5078342 134.492295,83.2022689 133.726755,83.2021853 Z" id="Path" fill="#3F3D56"></path>
                    <path d="M139.506608,67.1697408 C131.463201,67.1697408 124.942731,73.6885823 124.942731,81.7299808 C124.942731,89.7713793 131.463201,96.2902207 139.506608,96.2902207 C147.550015,96.2902207 154.070485,89.7713793 154.070485,81.7299808 C154.070485,73.6885823 147.550015,67.1697408 139.506608,67.1697408 L139.506608,67.1697408 Z M142.336829,73.2414196 C142.710877,73.2378516 143.070645,73.3848284 143.335149,73.6492662 C143.599653,73.913704 143.746667,74.2733811 143.743099,74.647336 C143.746686,75.2211613 143.403221,75.7403167 142.873621,75.9615702 C142.344022,76.1828236 141.7332,76.0623459 141.327335,75.6565825 C140.921469,75.2508192 140.80096,74.6401501 141.022268,74.1106827 C141.243576,73.5812153 141.76286,73.2378346 142.336829,73.2414196 Z M133.726767,90.2185425 C132.056682,90.2194377 130.550588,89.2142249 129.91106,87.6718238 C129.271532,86.1294228 129.624578,84.3537367 130.805507,83.1731029 C131.986436,81.992469 133.762566,81.6395106 135.305352,82.2788788 C136.848138,82.918247 137.853602,84.4239654 137.852707,86.0936336 C137.845066,88.3685913 136.002281,90.2109109 133.726755,90.2185425 L133.726767,90.2185425 Z M140.214177,81.9952454 L140.214177,85.974255 C140.214177,86.3649301 139.897393,86.6816348 139.506621,86.6816348 C139.115848,86.6816348 138.799064,86.3649301 138.799064,85.974255 L138.799064,83.0607356 C138.799064,82.4815753 138.09151,82.3533557 136.079396,81.1950222 C135.818477,81.0402827 135.261286,80.7661772 135.261286,79.996901 C135.265697,79.6261599 135.413011,79.2714141 135.67254,79.006562 L138.843292,75.9515708 C139.148228,75.6429262 139.58034,75.4951905 140.010463,75.5525244 C140.440586,75.6098582 140.818886,75.8656189 141.032284,76.2433554 L142.336842,78.900451 L144.459524,78.900451 C144.849776,78.9011924 145.165744,79.2176828 145.165744,79.6078373 C145.165744,79.9979918 144.849776,80.3144822 144.459524,80.3152236 L141.921145,80.3152236 C141.447965,80.3152236 141.067654,79.298362 140.240704,78.0383316 L138.078224,80.3152236 C138.869806,80.9341692 140.214164,81.4116607 140.214164,81.9952454 L140.214177,81.9952454 Z M145.286474,90.2141177 C143.007781,90.2141177 141.160538,88.3673313 141.160538,86.0892076 C141.160538,83.811084 143.007785,81.964301 145.286477,81.964301 C147.56517,81.964301 149.412415,83.8110857 149.412415,86.0892093 C149.405282,88.3643786 147.562199,90.2069941 145.286461,90.2141177 L145.286474,90.2141177 Z" id="Shape" fill="#3F3D56"></path>
                    <path d="M180.898678,67.1697408 C172.855271,67.1697408 166.334802,73.6885823 166.334802,81.7299808 C166.334802,89.7713793 172.855271,96.2902207 180.898678,96.2902207 C188.942085,96.2902207 195.462555,89.7713793 195.462555,81.7299808 C195.462555,73.6885823 188.942085,67.1697408 180.898678,67.1697408 Z M177.038071,77.5785243 C178.281722,77.607328 179.269345,78.6335748 179.250138,79.8771008 C179.230931,81.1206269 178.212085,82.1158981 176.968137,82.1062987 C175.724189,82.0966993 174.720828,81.0858229 174.720828,79.8421486 C174.727326,79.2345944 174.975247,78.6545675 175.409933,78.2299421 C175.844619,77.8053167 176.430377,77.5709594 177.038071,77.5785371 L177.038071,77.5785243 Z M189.38936,87.3889994 L187.845998,87.3889994 L187.845998,85.1253904 L173.951359,85.1253904 L173.951359,87.3889994 L172.407997,87.3889994 L172.407997,76.0709341 L173.951359,76.0709341 L173.951359,82.8617789 L180.124782,82.8617789 L180.124782,77.5785371 L186.302643,77.5785371 C187.112531,77.5696207 187.892777,77.8827792 188.471675,78.4490961 C189.050573,79.0154129 189.380681,79.7884794 189.38936,80.5981674 L189.38936,87.3889994 Z" id="Shape" fill="#3F3D56"></path>
                    <path d="M19.6936573,77.8393902 L15.3598717,77.8393902 C15.2622987,77.8396778 15.183274,77.9186896 15.1829947,78.0162383 L15.1829947,84.2058142 C15.183281,84.3033575 15.2623041,84.3823609 15.3598717,84.382647 L19.6936573,84.382647 C20.0839554,84.3815065 20.4000716,84.0654704 20.4012138,83.6752697 L20.4012138,78.5467675 C20.4000716,78.1565668 20.0839554,77.8405307 19.6936573,77.8393902 L19.6936573,77.8393902 Z" id="Path" fill="#3F3D56"></path>
                    <path d="M18.7207724,85.7090006 C18.1581071,85.7547946 17.7294684,86.2324464 17.7447519,86.7966253 C17.7600353,87.3608042 18.2139055,87.8145611 18.7782253,87.8298407 C19.3425451,87.8451203 19.8203162,87.4165887 19.8661217,86.8540639 C19.8907262,86.5434839 19.777982,86.2377201 19.5576261,86.0174192 C19.3372701,85.7971182 19.03143,85.6844022 18.7207724,85.7090006 Z" id="Path" fill="#3F3D56"></path>
                    <path d="M10.234519,85.7090006 C9.67185369,85.7547946 9.24321504,86.2324464 9.25849846,86.7966253 C9.27378188,87.3608042 9.72765209,87.8145611 10.2919719,87.8298407 C10.8562917,87.8451203 11.3340628,87.4165887 11.3798683,86.8540639 C11.4044728,86.5434839 11.2917287,86.2377201 11.0713727,86.0174192 C10.8510167,85.7971182 10.5451766,85.6844022 10.234519,85.7090006 Z" id="Path" fill="#3F3D56"></path>
                    <path d="M13.7678816,77.8393902 L9.44293656,77.8393902 C9.04788945,77.840854 8.72800366,78.1606599 8.72653947,78.5556084 L8.72653947,83.6664288 C8.72800366,84.0613773 9.04788945,84.3811832 9.44293656,84.382647 L13.7678816,84.382647 C13.8654492,84.3823609 13.9444723,84.3033575 13.9447586,84.2058142 L13.9447586,78.0162383 C13.9444794,77.9186896 13.8654546,77.8396778 13.7678816,77.8393902 L13.7678816,77.8393902 Z" id="Path" fill="#3F3D56"></path>
                    <path d="M14.5638767,67.1697408 C6.52046968,67.1697408 0,73.6885823 0,81.7299808 C0,89.7713793 6.52046968,96.2902207 14.5638767,96.2902207 C22.6072836,96.2902207 29.1277533,89.7713793 29.1277533,81.7299808 C29.1277533,73.6885823 22.6072836,67.1697408 14.5638767,67.1697408 L14.5638767,67.1697408 Z M21.6394474,87.6542921 C21.6365806,88.6297886 20.8462924,89.4198692 19.8705522,89.4227226 L9.25720115,89.4227226 C8.28146091,89.4198692 7.49117271,88.6297886 7.4883059,87.6542921 L7.4883059,75.4519732 C7.49059036,74.6715719 8.12282029,74.0394987 8.90341648,74.0372134 L20.2243368,74.0372134 C21.004933,74.0394987 21.6371629,74.6715719 21.6394474,75.4519732 L21.6394474,87.6542921 Z" id="Shape" fill="#3F3D56"></path>
                    <path d="M19.7378855,75.2751378 L9.38986784,75.2751378 C9.15848298,75.2591641 8.93749975,75.3735189 8.81694684,75.5716139 C8.69639393,75.7697089 8.69639393,76.0184783 8.81694684,76.2165733 C8.93749975,76.4146683 9.15848298,76.529023 9.38986784,76.5130494 L19.7378855,76.5130494 C19.9692703,76.529023 20.1902536,76.4146683 20.3108065,76.2165733 C20.4313594,76.0184783 20.4313594,75.7697089 20.3108065,75.5716139 C20.1902536,75.3735189 19.9692703,75.2591641 19.7378855,75.2751378 Z" id="Path" fill="#3F3D56"></path>
                    <path d="M58.1572285,82.1278789 C57.8653685,82.1278789 57.6265643,82.5611534 57.6265643,83.1005234 C57.6265643,83.6398934 57.8653685,84.0731679 58.1572285,84.0731679 C58.4490886,84.0731679 58.6879158,83.6399088 58.6879158,83.1005234 C58.6879158,82.561138 58.4491014,82.1278789 58.1572285,82.1278789 Z" id="Path" fill="#3F3D56"></path>
                    <path d="M54.2656789,82.1278789 C53.9738061,82.1278789 53.7349917,82.5611534 53.7349917,83.1005234 C53.7349917,83.6398934 53.9737959,84.0731679 54.2656789,84.0731679 C54.557562,84.0731679 54.7963432,83.6399088 54.7963432,83.1005234 C54.7963432,82.561138 54.557539,82.1278789 54.2656789,82.1278789 Z" id="Path" fill="#3F3D56"></path>
                    <path d="M56.2114537,67.1697408 C48.1680468,67.1697408 41.6475771,73.6885823 41.6475771,81.7299808 C41.6475771,89.7713793 48.1680468,96.2902207 56.2114537,96.2902207 C64.2548607,96.2902207 70.7753304,89.7713793 70.7753304,81.7299808 C70.7753304,73.6885823 64.2548607,67.1697408 56.2114537,67.1697408 Z M49.4012138,81.23481 L50.2060596,76.9551621 C50.4139092,75.7924018 50.9534165,74.8772268 51.9661144,74.8772268 L53.4873496,74.8772268 L53.5758034,74.5279573 C53.7352127,73.9011201 54.2997551,73.4623443 54.946696,73.4624669 L57.467376,73.4624669 C58.112919,73.462177 58.6768459,73.8986619 58.8382584,74.5235433 L58.9266969,74.8772268 L60.4567906,74.8772268 C61.4473769,74.8772268 61.973626,75.77472 62.2212732,76.9507353 L62.2212732,76.9551621 L63.0305393,81.2392394 C63.0436379,81.3044809 63.0188967,81.3715394 62.9665595,81.4126504 C62.9142222,81.4537615 62.8431975,81.4619272 62.7828921,81.4337668 L61.659639,80.9164951 C61.6058382,80.894224 61.567371,80.8457364 61.5579295,80.7882909 L60.8415299,77.0037959 C60.7088657,76.5174813 60.5231303,76.296416 60.1295454,76.296416 L52.2977773,76.296416 C51.9086228,76.296416 51.6963607,76.5307337 51.5858081,77.0037959 L50.8693957,80.7882756 C50.8583436,80.8449986 50.8204119,80.8928158 50.7676836,80.9164951 L49.6488611,81.429345 C49.5885443,81.4566314 49.5180516,81.448096 49.4659942,81.4072033 C49.4139369,81.3663105 49.3889649,81.2998552 49.4012138,81.23481 L49.4012138,81.23481 Z M64.9984231,83.9891783 L62.5794705,89.9974792 C61.3633485,89.9974792 60.0720615,89.0248347 60.0720615,89.0248347 C59.2760511,89.4271571 57.7238612,89.7808407 56.5652333,89.8471664 C56.4414097,89.8515779 56.321991,89.8560047 56.2114486,89.8560047 C56.1009063,89.8560047 55.9814927,89.8560047 55.857664,89.8471664 C54.6990411,89.7808407 53.1468513,89.4227328 52.3508358,89.0248347 C52.3508358,89.0248347 51.0595488,89.9974792 49.8434268,89.9974792 L47.4244742,83.9891783 C47.3871797,83.8948311 47.3676879,83.7943938 47.3669852,83.6929489 C47.3669852,83.3814167 47.5483451,83.0983689 47.8313071,82.9678898 L56.0610881,79.1878242 C56.1549026,79.1436224 56.2635616,79.1436224 56.3573761,79.1878242 L64.5915697,82.9678898 C64.8745318,83.0983689 65.0558916,83.3814167 65.0558916,83.6929489 C65.0551954,83.7943926 65.0357106,83.8948298 64.9984231,83.9891783 L64.9984231,83.9891783 Z" id="Shape" fill="#3F3D56"></path>
                    <path d="M97.8590308,67.1697408 C89.8156239,67.1697408 83.2951542,73.6885823 83.2951542,81.7299808 C83.2951542,89.7713793 89.8156239,96.2902207 97.8590308,96.2902207 C105.902438,96.2902207 112.422907,89.7713793 112.422907,81.7299808 C112.422907,73.6885823 105.902438,67.1697408 97.8590308,67.1697408 L97.8590308,67.1697408 Z M104.568123,83.149152 C104.417755,83.149152 103.918051,83.144738 103.772113,83.1358997 L100.902092,83.0607356 C100.871807,83.0599909 100.84332,83.0750665 100.826909,83.1005234 L96.5196652,89.5376821 C96.3899986,89.7419256 96.1646309,89.8654281 95.9226612,89.8648451 L94.874591,89.8648451 C94.6269438,89.8648451 94.5429179,89.6172577 94.6313717,89.3873693 L96.8469078,83.0695714 C96.8572337,83.0429548 96.8539521,83.0129789 96.838112,82.9892255 C96.8222719,82.965472 96.7958566,82.9509152 96.7673099,82.9502081 L91.3854541,82.8308269 C91.2720648,82.8283112 91.1640424,82.8790369 91.0935787,82.9678873 L89.4263981,84.9883402 C89.2912168,85.1581079 89.0862377,85.2573192 88.8691918,85.2580317 L88.1306806,85.2580317 C88.0732681,85.2586281 88.0191682,85.2312102 87.9857118,85.1845611 C87.9522553,85.137912 87.9436421,85.0778876 87.9626314,85.0237165 L88.8426651,81.9864045 C88.9089907,81.817299 88.9089907,81.6293898 88.8426651,81.4602843 L87.9626314,78.4229722 C87.9436421,78.3688012 87.9522553,78.3087768 87.9857118,78.2621277 C88.0191682,78.2154786 88.0732681,78.1880606 88.1306806,78.1886571 L88.87363,78.1886571 C89.0911259,78.18738 89.2969234,78.2869905 89.4308183,78.4583485 L91.0670494,80.447852 C91.1369044,80.5374574 91.2453278,80.5883684 91.3589095,80.5848971 L96.7717225,80.5053216 C96.8004988,80.5051819 96.8273224,80.4907476 96.8432869,80.4668114 C96.8592515,80.4428752 96.8622674,80.41257 96.8513332,80.3859582 L94.6357843,74.0725871 C94.5473458,73.8426886 94.6313692,73.5950981 94.8790266,73.5950981 L95.9270968,73.5950981 C96.1687907,73.5955741 96.393677,73.718816 96.5240855,73.922259 L100.826909,80.3638599 C100.842582,80.3901071 100.871568,80.4054471 100.902092,80.4036477 L103.772113,80.3284836 C103.913636,80.3196427 104.417755,80.3152312 104.568123,80.3152312 C106.531597,80.3152312 107.765385,80.9518739 107.765385,81.7343999 C107.765385,82.516926 106.527167,83.149152 104.568123,83.149152 Z" id="Shape" fill="#3F3D56"></path>
                    <path d="M16.7797219,130.809671 C15.0863731,130.809671 13.7136426,129.437283 13.7136426,127.744357 C13.7136426,126.051431 15.0863731,124.679043 16.7797219,124.679043 C18.4730708,124.679043 19.8458012,126.051431 19.8458012,127.744357 C19.8438652,129.436481 18.4722682,130.807735 16.7797219,130.809671 L16.7797219,130.809671 Z M16.7797219,125.189929 C15.3685979,125.189929 14.2246559,126.333585 14.2246559,127.744357 C14.2246559,129.155129 15.3685979,130.298785 16.7797219,130.298785 C18.190846,130.298785 19.334788,129.155129 19.334788,127.744357 C19.3332194,126.334236 18.1901957,125.191497 16.7797219,125.189929 Z" id="Shape" fill="#F0F0F0"></path>
                    <path d="M81.4228937,62.095556 C79.7295449,62.095556 78.3568144,60.7231683 78.3568144,59.0302423 C78.3568144,57.3373163 79.7295449,55.9649286 81.4228937,55.9649286 C83.1162426,55.9649286 84.488973,57.3373163 84.488973,59.0302423 C84.487037,60.7223659 83.11544,62.0936204 81.4228937,62.095556 L81.4228937,62.095556 Z M81.4228937,56.4758142 C80.0117697,56.4758142 78.8678277,57.6194706 78.8678277,59.0302423 C78.8678277,60.441014 80.0117697,61.5846704 81.4228937,61.5846704 C82.8340178,61.5846704 83.9779598,60.441014 83.9779598,59.0302423 C83.9763912,57.6201207 82.8333675,56.4773825 81.4228937,56.4758142 Z" id="Shape" fill="#F0F0F0"></path>
                    <path d="M138.521341,146.230738 L135.080919,142.543112 L138.769471,139.103551 L142.209891,142.791177 L138.521341,146.230738 Z M135.629295,142.562193 L138.54042,145.682494 L141.661497,142.772096 L138.750372,139.651795 L135.629295,142.562193 Z" id="Shape" fill="#F0F0F0"></path>
                </g>
            </g>
        </g>
    </g>
</svg>